<svg width="100" height="35" viewBox="0 0 100 35" fill="none" xmlns="http://www.w3.org/2000/svg">
<path d="M45.9254 10.7985C45.3004 9.67349 44.4254 8.79849 43.1754 8.17349C42.0504 7.54849 40.4254 7.54849 38.3004 7.54849H35.1754C34.6754 7.54849 34.1754 7.92349 34.1754 8.54849V21.9235C34.1754 22.4235 34.5504 22.9235 35.1754 22.9235H38.1754C39.9254 22.9235 41.4254 22.7985 42.4254 22.4235C43.1754 22.1735 43.9254 21.6735 44.6754 20.9235C45.4254 20.2985 45.9254 19.4235 46.3004 18.4235C46.6754 17.4235 46.9254 16.2985 46.9254 15.1735C47.0504 13.4235 46.6754 12.0485 45.9254 10.7985ZM43.5504 17.9235C43.0504 18.7985 42.5504 19.4235 42.0504 19.6735C41.3004 20.0485 40.4254 20.4235 39.0504 20.4235H37.1754V10.0485H38.6754C40.6754 10.0485 41.9254 10.4235 42.8004 11.1735C43.8004 12.0485 44.1754 13.4235 44.1754 15.0485C44.0504 16.1735 43.9254 17.1735 43.5504 17.9235Z" fill="#A9A5A5"/>
<path d="M99.4839 20.372H94.7339V7.99701C94.7339 7.74701 94.6089 7.62201 94.3589 7.62201H92.2339C91.9839 7.62201 91.8589 7.74701 91.8589 7.99701V22.497C91.8589 22.747 91.9839 22.872 92.2339 22.872H99.4839C99.7339 22.872 99.8589 22.747 99.8589 22.497V20.747C99.8589 20.622 99.7339 20.372 99.4839 20.372Z" fill="#A9A5A5"/>
<path d="M88.1086 12.5314C87.1086 11.4064 85.7336 10.7814 84.2336 10.7814C83.4836 10.7814 82.8586 10.9064 82.2336 11.1564C81.6086 11.4064 80.8586 11.9064 80.4836 12.2814L80.2336 12.5314L78.9836 11.4064H77.7336C77.4836 11.4064 77.3586 11.5314 77.3586 11.7814V26.7814C77.3586 27.0314 77.4836 27.1564 77.7336 27.1564H79.8586C80.1086 27.1564 80.2336 27.0314 80.2336 26.7814V21.2814L80.4836 21.5314C81.1086 22.0314 81.8586 22.4064 82.3586 22.6564C82.9836 22.9064 83.6086 23.0314 84.2336 23.0314C85.7336 23.0314 86.9836 22.4064 88.1086 21.2814C89.2336 20.1564 89.7336 18.6564 89.7336 17.0314C89.7336 15.1564 89.2336 13.6564 88.1086 12.5314ZM85.9836 19.4064C85.3586 20.0314 84.6086 20.4064 83.7336 20.4064C82.8586 20.4064 81.9836 20.0314 81.3586 19.4064C80.7336 18.7814 80.4836 17.9064 80.4836 16.9064C80.4836 15.9064 80.7336 15.0314 81.3586 14.4064C81.9836 13.7814 82.7336 13.4064 83.7336 13.4064C84.6086 13.4064 85.4836 13.7814 85.9836 14.4064C86.6086 15.0314 86.8586 15.9064 86.8586 16.9064C86.9836 17.9064 86.6086 18.7814 85.9836 19.4064Z" fill="#A9A5A5"/>
<path d="M73.6043 12.5679C72.4793 11.4429 70.9793 10.8179 69.2293 10.8179C67.4793 10.8179 66.1042 11.4429 64.9792 12.5679C63.8542 13.6929 63.2292 15.1929 63.2292 16.9429C63.2292 18.6929 63.7292 20.0679 64.9792 21.1929C66.1042 22.3179 67.6042 22.9429 69.3542 22.9429C70.4792 22.9429 71.6043 22.6929 72.3543 22.3179C73.1043 21.9429 73.7293 21.4429 74.2293 20.8179C74.3543 20.6929 74.3542 20.5679 74.3542 20.4429C74.3542 20.3179 74.2293 20.1929 74.1043 20.1929L72.3543 19.4429C72.2293 19.3179 72.1042 19.4429 71.9792 19.4429C71.2292 20.0679 70.3542 20.4429 69.3542 20.4429C68.3542 20.4429 67.6043 20.1929 67.1043 19.8179C66.4793 19.3179 66.2293 18.8179 66.1043 18.1929H75.1042C75.3542 18.1929 75.4793 18.0679 75.4793 17.8179V17.4429C75.3543 15.4429 74.7293 13.6929 73.6043 12.5679ZM65.9793 15.6929L66.1043 15.5679C66.4793 14.6929 66.8543 14.1929 67.2293 13.9429C67.8543 13.4429 68.6042 13.1929 69.3542 13.1929C70.1042 13.1929 70.7292 13.4429 71.3542 13.8179C71.8542 14.1929 72.3542 14.8179 72.4792 15.4429V15.6929H65.9793Z" fill="#A9A5A5"/>
<path d="M59.4347 12.5679C58.3097 11.4429 56.8097 10.8179 55.0597 10.8179C53.3097 10.8179 51.9347 11.4429 50.8097 12.5679C49.6847 13.6929 49.0597 15.1929 49.0597 16.9429C49.0597 18.6929 49.5597 20.0679 50.8097 21.1929C51.9347 22.3179 53.4347 22.9429 55.1847 22.9429C56.3097 22.9429 57.4347 22.6929 58.1847 22.3179C58.9347 21.9429 59.5597 21.4429 60.0597 20.8179C60.1847 20.6929 60.1847 20.5679 60.1847 20.4429C60.1847 20.3179 60.0597 20.1929 59.9347 20.1929L58.1847 19.4429C58.0597 19.3179 57.9347 19.4429 57.8097 19.4429C57.0597 20.0679 56.1847 20.4429 55.1847 20.4429C54.1847 20.4429 53.4347 20.1929 52.9347 19.8179C52.3097 19.3179 52.0597 18.8179 51.9347 18.1929H60.9347C61.1847 18.1929 61.3097 18.0679 61.3097 17.8179V17.4429C61.1847 15.4429 60.5597 13.6929 59.4347 12.5679ZM51.8097 15.6929L51.9347 15.5679C52.3097 14.6929 52.6847 14.1929 53.0597 13.9429C53.6847 13.4429 54.4347 13.1929 55.1847 13.1929C55.9347 13.1929 56.5597 13.4429 57.1847 13.8179C57.6847 14.1929 58.1847 14.8179 58.3097 15.4429V15.6929H51.8097Z" fill="#A9A5A5"/>
<path d="M25.375 6.53125L14.5 0.281249C13.75 -0.093751 12.875 -0.093751 12.125 0.281249L1.25 6.53125C0.500002 6.90625 0 7.78125 0 8.65625V21.2812C0 22.1562 0.500002 22.9062 1.25 23.4062L20 34.2812V26.5313L25.5 23.4062C26.25 23.0312 26.75 22.1562 26.75 21.2812V8.53125C26.625 7.78125 26.125 7.03125 25.375 6.53125ZM11.5 20.5312C11.5 21.7812 10.5 22.7812 9.25 22.7812C8 22.7812 7 21.7812 7 20.5312C7 19.2812 8 18.2812 9.25 18.2812C9.875 18.2812 10.375 18.5312 10.75 18.7812L14.75 16.5312C14.875 17.0312 15.125 17.5312 15.5 17.9062L11.5 20.1562C11.5 20.2812 11.5 20.4062 11.5 20.5312ZM18.5 17.5312C17.25 17.5312 16.25 16.5312 16.25 15.2812C16.25 15.1562 16.25 15.0313 16.25 14.9062L10.75 11.7812C10.375 12.1563 9.875 12.2812 9.25 12.2812C8 12.2812 7 11.2813 7 10.0313C7 8.78125 8 7.78125 9.25 7.78125C10.5 7.78125 11.5 8.78125 11.5 10.0313C11.5 10.1563 11.5 10.2812 11.5 10.4062L17 13.5312C17.375 13.1562 17.875 12.9062 18.5 12.9062C19.75 12.9062 20.75 13.9062 20.75 15.1562C20.75 16.4062 19.75 17.5312 18.5 17.5312Z" fill="#A9A5A5"/>
</svg>
