<svg width="71" height="23" viewBox="0 0 71 23" fill="none" xmlns="http://www.w3.org/2000/svg">
<path d="M17.269 8.12211H9.07096V10.5512H14.8779C14.5932 13.967 11.7467 15.4092 9.07096 15.4092C5.63614 15.4092 2.65676 12.7145 2.65676 8.93812C2.65676 5.2566 5.5033 2.42904 9.07096 2.42904C11.8226 2.42904 13.4546 4.19389 13.4546 4.19389L15.1625 2.42904C15.1625 2.42904 12.9802 0 8.99505 0C3.92822 0 0 4.28878 0 8.90016C0 13.4356 3.70049 17.8573 9.12789 17.8573C13.9101 17.8573 17.4018 14.5743 17.4018 9.73515C17.4018 8.71039 17.269 8.12211 17.269 8.12211Z" fill="#A9A5A5"/>
<path d="M23.9678 6.35724C20.6089 6.35724 18.1989 8.99503 18.1989 12.0503C18.1989 15.1625 20.533 17.8383 24.0058 17.8383C27.1559 17.8383 29.7178 15.4282 29.7178 12.1262C29.7368 8.31186 26.7385 6.35724 23.9678 6.35724ZM24.0058 8.61549C25.6568 8.61549 27.2319 9.94387 27.2319 12.1072C27.2319 14.2137 25.6757 15.599 24.0058 15.599C22.165 15.599 20.7228 14.1378 20.7228 12.1072C20.7228 10.0957 22.146 8.61549 24.0058 8.61549Z" fill="#A9A5A5"/>
<path d="M36.5304 6.35724C33.1715 6.35724 30.7615 8.99503 30.7615 12.0503C30.7615 15.1625 33.0956 17.8383 36.5684 17.8383C39.7186 17.8383 42.2804 15.4282 42.2804 12.1262C42.2804 8.31186 39.2821 6.35724 36.5304 6.35724ZM36.5684 8.61549C38.2194 8.61549 39.7945 9.94387 39.7945 12.1072C39.7945 14.2137 38.2384 15.599 36.5684 15.599C34.7276 15.599 33.2854 14.1378 33.2854 12.1072C33.2664 10.0957 34.7087 8.61549 36.5684 8.61549Z" fill="#A9A5A5"/>
<path d="M48.8275 6.35724C45.7343 6.35724 43.3242 9.05196 43.3242 12.0883C43.3242 15.5421 46.1328 17.8383 48.7896 17.8383C50.4216 17.8383 51.2945 17.193 51.9397 16.434V17.5726C51.9397 19.5462 50.7442 20.7417 48.9224 20.7417C47.1765 20.7417 46.2846 19.4323 45.981 18.6922L43.7797 19.6221C44.5577 21.2731 46.1328 23 48.9414 23C52.0156 23 54.3498 21.0643 54.3498 17.0223V6.69882H51.9397V7.66665C51.1996 6.88859 50.1749 6.35724 48.8275 6.35724ZM49.0552 8.61549C50.5734 8.61549 52.1295 9.90592 52.1295 12.1072C52.1295 14.3465 50.5734 15.58 49.0363 15.58C47.3853 15.58 45.8671 14.2516 45.8671 12.1262C45.8481 9.9249 47.4422 8.61549 49.0552 8.61549Z" fill="#A9A5A5"/>
<path d="M65.0337 6.35724C62.1303 6.35724 59.6823 8.67242 59.6823 12.0883C59.6823 15.7128 62.4149 17.8572 65.3184 17.8572C67.7474 17.8572 69.2466 16.5289 70.1195 15.3333L68.127 14.0049C67.6146 14.802 66.7417 15.58 65.3184 15.58C63.7054 15.58 62.9653 14.6881 62.5098 13.8341L70.2144 10.646L69.8159 9.71615C69.0758 7.87539 67.3299 6.35724 65.0337 6.35724ZM65.1476 8.55856C66.1913 8.55856 66.9504 9.10889 67.273 9.79206L62.1303 11.9364C61.9025 10.2665 63.4776 8.55856 65.1476 8.55856Z" fill="#A9A5A5"/>
<path d="M58.5438 0.588287H56.0199V17.5157H58.5438V0.588287Z" fill="#A9A5A5"/>
</svg>
